<svg xmlns="http://www.w3.org/2000/svg" viewBox="0 0 32 32" width="32" height="32" role="img" aria-label="Sonrisapp favicon">
  <!-- Background circle -->
  <circle cx="16" cy="16" r="15" fill="#2563EB"/>

  <!-- Tooth shape centered -->
  <path d="
    M16,5
    C13.5,5 11.5,6.5 10,8.5
    C8.5,6.5 6.5,5 4.5,5
    C2.5,5 1.5,6.5 1.5,8.5
    C1.5,12 3,14.5 4.5,17.5
    C5.5,20 6,24 7.5,26
    C8.5,27.5 10.5,27.5 11.5,26
    C12,24.5 12,23 13,23
    C14,23 14,24.5 14.5,26
    C15.5,27.5 17.5,27.5 18.5,26
    C20,24 20.5,20 21.5,17.5
    C23,14.5 24.5,12 24.5,8.5
    C24.5,6.5 23.5,5 21.5,5
    C19.5,5 17.5,6.5 16,5 Z
  " fill="white"/>

  <!-- Small shine -->
  <path d="M6.5,9 C7.5,7.5 9.5,7 11,7.5" stroke="#93C5FD" stroke-width="1" stroke-linecap="round" fill="none"/>
</svg>
