<svg xmlns="http://www.w3.org/2000/svg" viewBox="0 0 240 60" width="240" height="60" role="img" aria-label="Sonrisapp logo">
  <!-- Tooth icon -->
  <g transform="translate(4, 4)">
    <!-- Main tooth shape -->
    <path d="
      M26,2
      C20,2 16,5 13,9
      C10,5 6,2 2,2
      C-2,2 -4,6 -4,10
      C-4,16 -1,20 2,26
      C4,30 5,38 8,42
      C10,46 14,46 16,42
      C17,39 17,36 19,36
      C21,36 21,39 22,42
      C24,46 28,46 30,42
      C33,38 34,30 36,26
      C39,20 42,16 42,10
      C42,6 40,2 36,2
      C32,2 28,5 26,2 Z
    " fill="#2563EB" />
    <!-- Tooth shine -->
    <path d="M8,8 C10,6 14,5 17,6" stroke="white" stroke-width="1.5" stroke-linecap="round" fill="none" opacity="0.5"/>
  </g>

  <!-- App name -->
  <text x="60" y="38" font-family="'Segoe UI', Arial, sans-serif" font-size="26" font-weight="700" fill="#1e293b" letter-spacing="-0.5">
    Sonris<tspan fill="#2563EB">app</tspan>
  </text>

  <!-- Tagline -->
  <text x="61" y="52" font-family="'Segoe UI', Arial, sans-serif" font-size="10" fill="#64748b" letter-spacing="0.3">
    Gestión odontológica
  </text>
</svg>
